<svg width="512" height="512" viewBox="0 0 512 512" fill="none"
  xmlns="http://www.w3.org/2000/svg">
  <path d="M256 0C114.615 0 0 114.615 0 256C0 397.385 114.615 512 256 512C397.385 512 512 397.385 512 256C512 114.615 397.385 0 256 0ZM256 480C132.288 480 32 379.712 32 256C32 132.288 132.288 32 256 32C379.712 32 480 132.288 480 256C480 379.712 379.712 480 256 480Z" fill="#E43A2F"/>
  <path d="M139.36 251.36L176 214.56L212.64 251.36L235.36 228.64L198.56 192L235.36 155.36L212.64 132.64L176 169.44L139.36 132.64L116.64 155.36L153.44 192L116.64 228.64L139.36 251.36Z" fill="#E43A2F"/>
  <path d="M372.64 132.64L336 169.44L299.36 132.64L276.64 155.36L313.44 192L276.64 228.64L299.36 251.36L336 214.56L372.64 251.36L395.36 228.64L358.56 192L395.36 155.36L372.64 132.64Z" fill="#E43A2F"/>
  <path d="M256 272C185.308 272 128 329.308 128 400H160C160 346.981 202.981 304 256 304C309.019 304 352 346.981 352 400H384C384 329.308 326.692 272 256 272Z" fill="#E43A2F"/>
</svg>
