<svg width="2106" height="1008" viewBox="0 0 2106 1008" fill="none" xmlns="http://www.w3.org/2000/svg">
<path fill-rule="evenodd" clip-rule="evenodd" d="M590.239 0.0856934H297.252C236.67 0.0856934 200.692 29.5011 189.279 88.319C177.852 147.124 210.341 211.648 286.72 281.88C333.022 318.312 325.137 335.652 263.025 333.901H0.983521V475.441H415.757C484.224 464.04 519.113 428.918 520.436 370.1C521.759 311.282 486.857 250.713 415.757 188.381C376.043 155.463 384.383 139.887 440.775 141.638H684.257V475.428H838.986V141.638H989.759V0.0856934H590.239ZM960.357 475.428L1116.72 0.0856934H1352.76L1511.77 475.428H1332.02L1302.07 389.84H1160.84L1130.87 475.428H960.357ZM1235.25 105.426L1167.11 293.734H1298.13L1235.25 105.426Z" fill="#F2F250"/>
<path fill-rule="evenodd" clip-rule="evenodd" d="M1504.75 475.428V0.0856934H1814.17C1852.37 3.6005 1883.75 13.678 1908.33 30.3701C1932.92 47.0492 1950.91 69.435 1962.34 97.5275C1971.1 139.666 1971.53 172.143 1963.63 194.969C1955.73 217.796 1941.92 236.888 1922.17 252.257C1902.42 267.613 1874.09 279.688 1837.26 288.455L1872.77 333.901H2105.03V475.441H1827.35L1676.57 318.416V475.441H1504.75V475.428V475.428ZM1676.57 118.59V206.149H1796.41C1802.77 206.149 1809.68 203.802 1817.14 199.081C1824.61 194.36 1828.57 182.466 1829.02 163.362C1827.9 145.152 1823.44 133.13 1815.67 127.319C1807.87 121.509 1801.34 118.603 1796.09 118.603H1676.57V118.59V118.59ZM350.584 806.468L300.546 1007.93H145.817L0.983521 532.559H155.7L220.873 738L277.486 532.559H419.699L485.884 738L529.994 532.559H684.711L565.544 1007.93H410.815L350.584 806.468V806.468ZM613.714 1007.93L770.078 532.559H1006.11L1165.12 1007.93H985.363L955.415 922.327H814.201L784.228 1007.93H613.714ZM888.595 637.913L820.452 826.208H951.473L888.595 637.913Z" fill="#F2F250"/>
<path fill-rule="evenodd" clip-rule="evenodd" d="M1926.45 674.112L2103.99 673.372V531.82L1782.91 532.56C1722.32 532.56 1686.35 561.975 1674.93 620.793C1663.53 679.611 1696 744.135 1772.38 814.354C1818.68 850.812 1810.78 868.126 1748.67 866.388H1526.14L1490.57 820.942C1527.46 812.175 1555.77 800.1 1575.54 784.744C1595.27 769.362 1609.1 750.296 1617 727.469C1624.88 704.616 1624.45 672.14 1615.68 630.014C1604.28 601.922 1586.26 579.549 1561.7 562.857C1537.11 546.165 1505.75 536.087 1467.54 532.56H1158.08V1007.93H1329.93V850.902L1480.7 1007.93H1901.42C1969.91 996.501 2004.77 961.392 2006.08 902.574C2007.39 843.756 1972.52 783.187 1901.42 720.868C1861.72 687.95 1870.03 672.361 1926.45 674.112V674.112ZM1470.5 731.568C1463.03 736.276 1456.14 738.662 1449.75 738.662H1329.93V651.09H1449.42C1454.71 651.09 1461.22 653.982 1469.01 659.806C1476.81 665.629 1481.26 677.639 1482.35 695.849C1481.9 714.953 1477.98 726.86 1470.5 731.568Z" fill="#F2F250"/>
</svg>
